<?xml version="1.0" encoding="iso-8859-1"?>
<!-- Generator: Adobe Illustrator 19.0.0, SVG Export Plug-In . SVG Version: 6.00 Build 0)  -->
<svg version="1.1" id="Capa_1" xmlns="http://www.w3.org/2000/svg" xmlns:xlink="http://www.w3.org/1999/xlink" x="0px" y="0px"
	 viewBox="0 0 496 496" style="enable-background:new 0 0 496 496;" xml:space="preserve">
<rect x="8" y="56" style="fill:#FFCB57;" width="192" height="192"/>
<g>
	<rect x="432" y="248" style="fill:#E56565;" width="16" height="128"/>
	<rect x="400" y="264" style="fill:#E56565;" width="16" height="112"/>
	<rect x="368" y="312" style="fill:#E56565;" width="16" height="64"/>
	<rect x="336" y="296" style="fill:#E56565;" width="16" height="80"/>
</g>
<g>
	<path style="fill:#3F3A34;" d="M288,472c0,13.232,10.768,24,24,24h160c13.232,0,24-10.768,24-24v-56H288V472z M304,432h176v40
		c0,4.416-3.592,8-8,8H312c-4.408,0-8-3.584-8-8V432z"/>
	<rect x="368" y="448" style="fill:#3F3A34;" width="48" height="16"/>
	<path style="fill:#3F3A34;" d="M472,152H312c-13.232,0-24,10.768-24,24v224h16V216h176v184h16V176C496,162.768,485.232,152,472,152
		z M304,200v-24c0-4.416,3.592-8,8-8h160c4.408,0,8,3.584,8,8v24H304z"/>
	<rect x="320" y="368" style="fill:#3F3A34;" width="144" height="16"/>
	<path style="fill:#3F3A34;" d="M208,320v-56H0v56c0,13.232,10.768,24,24,24h160C197.232,344,208,333.232,208,320z M16,320v-40h176
		v40c0,4.416-3.592,8-8,8H24C19.592,328,16,324.416,16,320z"/>
	<rect x="80" y="296" style="fill:#3F3A34;" width="48" height="16"/>
	<path style="fill:#3F3A34;" d="M16,64h176v184h16V24c0-13.232-10.768-24-24-24H24C10.768,0,0,10.768,0,24v224h16V64z M24,16h160
		c4.408,0,8,3.584,8,8v24H16V24C16,19.584,19.592,16,24,16z"/>
	<path style="fill:#3F3A34;" d="M144,144v-4c0-15.44-12.56-28-28-28h-4V96H96v16h-4c-15.44,0-28,12.56-28,28s12.56,28,28,28h24
		c6.616,0,12,5.384,12,12s-5.384,12-12,12H92c-6.616,0-12-5.384-12-12v-4H64v4c0,15.44,12.56,28,28,28h4v16h16v-16h4
		c15.44,0,28-12.56,28-28s-12.56-28-28-28H92c-6.616,0-12-5.384-12-12s5.384-12,12-12h24c6.616,0,12,5.384,12,12v4H144z"/>
	<path style="fill:#3F3A34;" d="M360,96c0,17.648,14.352,32,32,32s32-14.352,32-32s-14.352-32-32-32
		c-7.616,0-14.528,2.784-20.032,7.248C335.536,45.632,292.792,32,248,32v16c41.312,0,80.72,12.52,114.368,36.048
		C360.864,87.752,360,91.768,360,96z M392,80c8.824,0,16,7.176,16,16s-7.176,16-16,16s-16-7.176-16-16S383.176,80,392,80z"/>
	<path style="fill:#3F3A34;" d="M136,400c0-17.648-14.352-32-32-32s-32,14.352-32,32s14.352,32,32,32
		c7.616,0,14.528-2.784,20.032-7.248C160.464,450.368,203.208,464,248,464v-16c-41.312,0-80.72-12.52-114.368-36.048
		C135.136,408.248,136,404.232,136,400z M104,416c-8.824,0-16-7.176-16-16s7.176-16,16-16s16,7.176,16,16S112.824,416,104,416z"/>
</g>
<g>
</g>
<g>
</g>
<g>
</g>
<g>
</g>
<g>
</g>
<g>
</g>
<g>
</g>
<g>
</g>
<g>
</g>
<g>
</g>
<g>
</g>
<g>
</g>
<g>
</g>
<g>
</g>
<g>
</g>
</svg>
