<svg height="480pt" viewBox="0 0 480.06504 480" width="480pt" xmlns="http://www.w3.org/2000/svg"><path d="m376 8.042969c45.140625.027343 84.167969 31.480469 93.789062 75.582031 9.621094 44.101562-12.761718 88.953125-53.789062 107.777344v-55.359375c.03125-10.617188-4.171875-20.8125-11.679688-28.320313-7.507812-7.507812-17.703124-11.710937-28.320312-11.679687 17.671875 0 32-14.328125 32-32s-14.328125-32-32-32-32 14.328125-32 32 14.328125 32 32 32c-22.089844 0-40 17.910156-40 40v55.359375c-34.136719-15.671875-56.011719-49.796875-56-87.359375-.027344-11.5625 2.0625-23.03125 6.160156-33.839844 14.066406-37.417969 49.867188-62.1875 89.839844-62.160156zm0 0" fill="#ffeb99"/><path d="m472 328.042969v144h-32v-128l-64-48-64 48v128h-32v-144l96-72 34.878906 26.160156zm0 0" fill="#c6c5ca"/><path d="m440 344.042969v128h-32v-96h-64v96h-32v-128l64-48zm0 0" fill="#ff9478"/><path d="m416 136.042969v55.359375c-2 .878906-4.078125 1.761718-6.160156 2.480468-10.808594 4.097657-22.277344 6.1875-33.839844 6.160157-13.796875.015625-27.4375-2.933594-40-8.640625v-55.359375c0-22.089844 17.910156-40 40-40s40 17.910156 40 40zm0 0" fill="#d9ccbc"/><path d="m344 376.042969h64v96h-64zm0 0" fill="#83d8f4"/><path d="m408 64.042969c0 17.671875-14.328125 32-32 32s-32-14.328125-32-32 14.328125-32 32-32 32 14.328125 32 32zm0 0" fill="#d9ccbc"/><path d="m200 80.042969v144h-56v-64c-.027344-8.824219-7.175781-15.972657-16-16h-48c-8.824219.027343-15.972656 7.175781-16 16v64h-56v-144l96-72 48 39.28125v-39.28125h32v64l1.28125.640625h.078125zm0 0" fill="#b39a7c"/><path d="m200 376.042969c.027344 11.5625-2.0625 23.03125-6.160156 33.839843-15.589844 41.382813-57.433594 66.761719-101.335938 61.464844-43.90625-5.296875-78.511718-39.902344-83.808594-83.808594-5.296874-43.902343 20.082032-85.746093 61.464844-101.335937 10.808594-4.097656 22.277344-6.1875 33.839844-6.160156 53.019531 0 96 42.980469 96 96zm0 0" fill="#ffeb99"/><path d="m144 160.042969v64h-80v-64c.027344-8.824219 7.175781-15.972657 16-16h48c8.824219.027343 15.972656 7.175781 16 16zm0 0" fill="#83d8f4"/><path d="m419.785156 278.882812c5.835938-26.484374 5.636719-53.941406-.585937-80.335937 42.007812-19.125 66.371093-63.664063 59.8125-109.355469-6.558594-45.6875-42.46875-81.578125-88.160157-88.113281-45.691406-6.535156-90.21875 17.851563-109.324218 59.867187-29.515625-6.824218-60.253906-6.308593-89.527344 1.496094v-54.398437c0-4.417969-3.582031-8.0000002-8-8.0000002h-32c-4.417969 0-8 3.5820312-8 8.0000002v22.398437l-34.9375-28.589844c-2.847656-2.332031-6.917969-2.417968-9.863281-.207031l-96 72c-2.011719 1.507813-3.199219 3.878907-3.199219 6.398438v144c0 4.417969 3.582031 8 8 8h48.359375c-.113281 2.65625-.359375 5.296875-.359375 8 .03125 13.972656 1.65625 27.894531 4.839844 41.496093-41.976563 19.136719-66.3125 63.65625-59.761719 109.324219 6.550781 45.664063 42.421875 81.546875 88.085937 88.109375 45.664063 6.566406 90.191407-17.757812 109.339844-59.730468 24.105469 5.671874 49.121094 6.34375 73.496094 1.976562v50.824219c0 4.417969 3.582031 8 8 8h192c4.417969 0 8-3.582031 8-8v-144c0-2.519531-1.1875-4.890625-3.199219-6.398438zm-67.785156-214.839843c0-13.253907 10.746094-24 24-24s24 10.746093 24 24c0 13.253906-10.746094 24-24 24s-24-10.746094-24-24zm4.71875 46.480469c12.8125-9.332032 30.46875-8.140626 41.914062 2.824218 6.003907 6.023438 9.375 14.1875 9.367188 22.695313v49.886719c-20.554688 8.152343-43.445312 8.152343-64 0v-49.886719c-.050781-10.042969 4.671875-19.511719 12.71875-25.519531zm19.28125-94.480469c38.945312-.019531 73.269531 25.578125 84.351562 62.914062 11.085938 37.332031-3.703124 77.515625-36.351562 98.75v-41.664062c.019531-12.753907-5.039062-24.988281-14.054688-34.007813-2.71875-2.667968-5.738281-5.011718-9-6.976562 13.296876-10.609375 18.429688-28.46875 12.796876-44.519532-5.636719-16.050781-20.808594-26.78125-37.820313-26.75-17.011719.035157-32.140625 10.824219-37.714844 26.894532-5.574219 16.074218-.371093 33.914062 12.96875 44.472656-1.367187.796875-2.769531 1.597656-4.0625 2.574219-12.007812 9.085937-19.078125 23.257812-19.113281 38.3125v41.664062c-32.648438-21.234375-47.4375-61.417969-36.351562-98.75 11.082031-37.335937 45.40625-62.933593 84.351562-62.914062zm-360 68 87.792969-65.832031 43.144531 35.304687c2.390625 1.957031 5.699219 2.359375 8.492188 1.035156 2.792968-1.328125 4.574218-4.144531 4.570312-7.234375v-31.273437h16v56c0 3.03125 1.710938 5.804687 4.425781 7.160156l11.574219 5.785156v131.054688h-40v-56c0-13.253907-10.746094-24-24-24h-48c-13.253906 0-24 10.746093-24 24v56h-40zm56 132v-56c0-4.417969 3.582031-8 8-8h48c4.417969 0 8 3.582031 8 8v56zm32 248c-48.601562 0-88-39.398438-88-88 0-48.601563 39.398438-88 88-88s88 39.398437 88 88c-.058594 48.578125-39.421875 87.941406-88 88zm100.046875-59.945313c10.285156-36.164062.183594-75.0625-26.398437-101.65625-26.582032-26.59375-65.476563-36.714844-101.648438-26.445312-2.621094-11.804688-3.964844-23.859375-4-35.953125 0-2.703125.230469-5.34375.359375-8h127.640625c4.417969 0 8-3.582031 8-8v-144c-.011719-1.628907-.527344-3.214844-1.472656-4.542969 22.929687-4.609375 46.5625-4.425781 69.417968.535156-10.269531 36.171875-.152343 75.066406 26.4375 101.648438 26.589844 26.582031 65.488282 36.6875 101.65625 26.40625 4.699219 21.078125 5.222657 42.867187 1.535157 64.144531l-24.773438-18.589844c-2.84375-2.136719-6.757812-2.136719-9.601562 0l-96 72c-2.011719 1.507813-3.199219 3.878907-3.199219 6.398438v76.800781c-22.464844 4.367188-45.585938 4.113281-67.953125-.746094zm227.953125 59.945313h-16v-88c0-4.417969-3.582031-8-8-8h-64c-4.417969 0-8 3.582031-8 8v88h-16v-116l56-42 56 42zm-32 0h-48v-80h48zm64 0h-16v-120c0-2.519531-1.1875-4.890625-3.199219-6.398438l-64-48c-2.84375-2.136719-6.757812-2.136719-9.601562 0l-64 48c-2.011719 1.507813-3.199219 3.878907-3.199219 6.398438v120h-16v-132l88-66 88 66zm0 0"/><path d="m104 336.042969c8.835938 0 16 7.164062 16 16h16c-.054688-14.546875-9.914062-27.226563-24-30.863281v-17.136719h-16v17.136719c-15.585938 4.011718-25.753906 18.992187-23.71875 34.960937 2.03125 15.964844 15.625 27.921875 31.71875 27.902344 8.835938 0 16 7.164062 16 16 0 8.835937-7.164062 16-16 16s-16-7.164063-16-16h-16c.054688 14.546875 9.914062 27.226562 24 30.863281v17.136719h16v-17.136719c15.585938-4.011719 25.753906-18.992188 23.71875-34.957031-2.03125-15.96875-15.625-27.925781-31.71875-27.90625-8.835938 0-16-7.164063-16-16 0-8.835938 7.164062-16 16-16zm0 0"/></svg>