<svg height="480pt" viewBox="0 0 480 480" width="480pt" xmlns="http://www.w3.org/2000/svg"><path d="m472 312v40l-112-112-112 112v-40l112-112zm0 0" fill="#c6c5ca"/><path d="m472 80c0 39.765625-32.234375 72-72 72s-72-32.234375-72-72 32.234375-72 72-72 72 32.234375 72 72zm0 0" fill="#ffeb99"/><path d="m448 328v144h-64v-64h-48v64h-64v-144l88-88zm-32 48v-32h-32v32zm-80 0v-32h-32v32zm0 0" fill="#ff9478"/><g fill="#83d8f4"><path d="m384 344h32v32h-32zm0 0"/><path d="m336 408h48v64h-48zm0 0"/><path d="m304 344h32v32h-32zm0 0"/></g><path d="m189.199219 279.121094 8-13.839844c4.410156-7.644531 1.796875-17.417969-5.839844-21.839844-2.433594-1.402344-5.191406-2.144531-8-2.160156-5.710937.003906-10.984375 3.054688-13.839844 8l-8 13.839844-80 138.558594-10.160156 49.601562 37.839844-33.601562zm106.800781-207.121094v192l-48 48v40l24-24v144h-264v-464h224v64zm0 0" fill="#d9ccbc"/><path d="m296 72h-64v-64zm0 0" fill="#c6c5ca"/><path d="m191.359375 243.441406c7.636719 4.421875 10.25 14.195313 5.839844 21.839844l-8 13.839844-27.679688-16 8-13.839844c2.855469-4.945312 8.128907-7.996094 13.839844-8 2.808594.015625 5.566406.757812 8 2.160156zm0 0" fill="#c6c5ca"/><path d="m81.519531 401.695312 80-138.5625 27.6875 15.984376-80.003906 138.5625zm0 0" fill="#898890"/><path d="m109.199219 417.679688-37.839844 33.601562 10.160156-49.601562zm0 0" fill="#c6c5ca"/><path d="m360 211.3125 106.34375 106.34375 11.3125-11.3125-112-112c-3.125-3.121094-8.1875-3.121094-11.3125 0l-50.34375 50.34375v-172.6875h-.070312c.023437-2.113281-.792969-4.148438-2.273438-5.65625l-64-64c-1.507812-1.476562-3.542969-2.2929688-5.65625-2.265625v-.078125h-224c-4.417969 0-8 3.582031-8 8v464c0 4.417969 3.582031 8 8 8h440c4.417969 0 8-3.582031 8-8v-124.6875l10.34375 10.34375 11.3125-11.3125-112-112c-3.125-3.121094-8.1875-3.121094-11.3125 0l-112 112 11.3125 11.3125 10.34375-10.34375v116.6875h-248v-448h208v56c0 4.417969 3.582031 8 8 8h56v180.6875l-45.65625 45.65625 11.3125 11.3125zm16 252.6875h-32v-48h32zm-16-212.6875 80 80v132.6875h-48v-56c0-4.417969-3.582031-8-8-8h-48c-4.417969 0-8 3.582031-8 8v56h-48v-132.6875zm-120-187.3125v-36.6875l36.6875 36.6875zm0 0"/><path d="m304 384h32c4.417969 0 8-3.582031 8-8v-32c0-4.417969-3.582031-8-8-8h-32c-4.417969 0-8 3.582031-8 8v32c0 4.417969 3.582031 8 8 8zm8-32h16v16h-16zm0 0"/><path d="m384 384h32c4.417969 0 8-3.582031 8-8v-32c0-4.417969-3.582031-8-8-8h-32c-4.417969 0-8 3.582031-8 8v32c0 4.417969 3.582031 8 8 8zm8-32h16v16h-16zm0 0"/><path d="m400 160c44.183594 0 80-35.816406 80-80s-35.816406-80-80-80-80 35.816406-80 80c.046875 44.164062 35.835938 79.953125 80 80zm0-144c35.347656 0 64 28.652344 64 64s-28.652344 64-64 64-64-28.652344-64-64c.039062-35.328125 28.671875-63.960938 64-64zm0 0"/><path d="m400 104c-4.417969 0-8-3.582031-8-8h-16c.042969 10.132812 6.445312 19.148438 16 22.527344v9.472656h16v-9.472656c11.011719-3.878906 17.621094-15.132813 15.644531-26.640625-1.980469-11.507813-11.96875-19.910157-23.644531-19.886719-4.417969 0-8-3.582031-8-8s3.582031-8 8-8 8 3.582031 8 8h16c-.042969-10.132812-6.445312-19.148438-16-22.527344v-9.472656h-16v9.472656c-11.011719 3.878906-17.621094 15.132813-15.644531 26.640625 1.980469 11.507813 11.96875 19.910157 23.644531 19.886719 4.417969 0 8 3.582031 8 8s-3.582031 8-8 8zm0 0"/><path d="m48 64h144v16h-144zm0 0"/><path d="m48 112h16v16h-16zm0 0"/><path d="m80 112h32v16h-32zm0 0"/><path d="m128 112h128v16h-128zm0 0"/><path d="m48 160h208v16h-208zm0 0"/><path d="m48 208h32v16h-32zm0 0"/><path d="m96 208h32v16h-32zm0 0"/><path d="m144 208h32v16h-32zm0 0"/><path d="m192 208h32v16h-32zm0 0"/><path d="m240 208h16v16h-16zm0 0"/><path d="m177.984375 346.566406 13.855469 8 32-55.421875c1.0625-1.839843 1.351562-4.023437.804687-6.074219-.550781-2.050781-1.894531-3.800781-3.734375-4.863281l-20.796875-12 4-6.925781c6.625-11.488281 2.6875-26.175781-8.800781-32.800781-11.488281-6.628907-26.171875-2.6875-32.800781 8.800781l-8 13.855469-80 138.558593c-.421875.75-.726563 1.558594-.902344 2.402344l-10.152344 49.597656c-.691406 3.375.851563 6.8125 3.835938 8.535157 2.980469 1.722656 6.730469 1.339843 9.308593-.941407l37.855469-33.601562c.640625-.566406 1.179688-1.238281 1.597657-1.984375l76-131.632813 13.855468 8zm3.289063-96.964844c3.125-.839843 6.449218.289063 8.417968 2.855469 1.96875 2.566407 2.199219 6.070313.582032 8.871094l-4 6.917969-13.847657-8 4-6.925782c1.050781-1.839843 2.796875-3.179687 4.847657-3.71875zm-94.167969 164.582032 8.480469 4.90625-11.585938 10.269531zm19.199219-7.40625-13.847657-8 72-124.707032 13.847657 8zm0 0"/></svg>