<svg height="480pt" viewBox="0 -16 480 480" width="480pt" xmlns="http://www.w3.org/2000/svg"><path d="m440 16h-80c-17.671875 0-32 14.328125-32 32v80c0 17.671875 14.328125 32 32 32v32l40-32h40c17.671875 0 32-14.328125 32-32v-80c0-17.671875-14.328125-32-32-32zm0 0" fill="#fbd699"/><path d="m360 440h-256v-65.816406c0-22.351563 15.429688-41.742188 37.207031-46.769532l66.792969-15.414062h56l59.640625 14.910156c21.367187 5.34375 36.359375 24.542969 36.359375 46.570313zm0 0" fill="#ebebeb"/><path d="m208 272h48v72h-48zm0 0" fill="#fdc9a6"/><path d="m208 290.535156c15.171875 7.285156 32.828125 7.285156 48 0v-18.535156h-48zm0 0" fill="#f6bb92"/><path d="m144 384h16v56h-16zm0 0" fill="#dbdbdb"/><path d="m304 384h16v56h-16zm0 0" fill="#dbdbdb"/><path d="m272 384h16v16h-16zm0 0" fill="#dbdbdb"/><path d="m216 440v-48l8-16h16l8 16v48zm0 0" fill="#4799cf"/><path d="m248 344v16l-8 16h-16l-8-16v-16zm0 0" fill="#428dc5"/><path d="m200 352 32-8-24-32-21.96875 5.070312zm0 0" fill="#f9f9f9"/><path d="m264 352 14.542969-36.359375-14.542969-3.640625h-8l-24 32zm0 0" fill="#f9f9f9"/><path d="m232 280c-30.929688 0-56-25.070312-56-56v-80h112v80c0 30.929688-25.070312 56-56 56zm0 0" fill="#fdc9a6"/><path d="m400 72c-4.417969 0-8-3.582031-8-8s3.582031-8 8-8 8 3.582031 8 8h16c-.042969-10.132812-6.445312-19.148438-16-22.527344v-9.472656h-16v9.472656c-11.011719 3.878906-17.621094 15.132813-15.644531 26.640625 1.980469 11.507813 11.96875 19.910157 23.644531 19.886719 4.417969 0 8 3.582031 8 8s-3.582031 8-8 8-8-3.582031-8-8h-16c.042969 10.132812 6.445312 19.148438 16 22.527344v9.472656h16v-9.472656c11.011719-3.878906 17.621094-15.132813 15.644531-26.640625-1.980469-11.507813-11.96875-19.910157-23.644531-19.886719zm0 0" fill="#6b9777"/><path d="m216 152c15.40625 20.539062 38.132812 34.351562 63.457031 38.574219l8.542969 1.425781h16v-32c0-39.765625-32.234375-72-72-72s-72 32.234375-72 72v32h16zm0 0" fill="#834b10"/><path d="m176 216h-8c-8.835938 0-16-7.164062-16-16s7.164062-16 16-16h8zm0 0" fill="#fdc9a6"/><path d="m296 216h-8v-32h8c8.835938 0 16 7.164062 16 16s-7.164062 16-16 16zm0 0" fill="#fdc9a6"/><path d="m120 8h-80c-17.671875 0-32 14.328125-32 32v40c0 17.671875 14.328125 32 32 32h43.199219l44.800781 32v-33.128906c14.101562-3.617188 23.972656-16.3125 24-30.871094v-40c0-17.671875-14.328125-32-32-32zm0 0" fill="#fbedbf"/><path d="m56 48c-2.128906.023438-4.175781-.8125-5.679688-2.320312-1.507812-1.503907-2.34375-3.550782-2.320312-5.679688.011719-1.046875.230469-2.078125.640625-3.039062.726563-2.011719 2.308594-3.59375 4.320313-4.320313 2.980468-1.214844 6.402343-.558594 8.71875 1.679687 1.460937 1.535157 2.289062 3.5625 2.320312 5.679688-.015625.535156-.070312 1.070312-.160156 1.601562-.085938.5-.25.984376-.480469 1.4375-.175781.511719-.417969.996094-.71875 1.441407l-.960937 1.199219-1.199219.960937c-.445313.300781-.929688.542969-1.441407.71875-.453124.230469-.9375.394531-1.4375.480469-.53125.089844-1.066406.144531-1.601562.160156zm0 0" fill="#fd9226"/><path d="m104 88c-2.117188-.03125-4.144531-.859375-5.679688-2.320312-.707031-.777344-1.273437-1.671876-1.679687-2.640626-.855469-1.9375-.855469-4.140624 0-6.078124.386719-.980469.957031-1.875 1.679687-2.640626 1.921876-1.875 4.644532-2.683593 7.28125-2.160156.5.085938.984376.25 1.4375.480469.511719.175781.996094.417969 1.441407.71875.417969.296875.820312.617187 1.199219.960937.707031.777344 1.273437 1.671876 1.679687 2.640626.410156.960937.628906 1.992187.640625 3.039062.023438 2.128906-.8125 4.175781-2.320312 5.679688-1.503907 1.507812-3.550782 2.34375-5.679688 2.320312zm0 0" fill="#fd9226"/><path d="m56 88c-3.367188 0-6.371094-2.109375-7.519531-5.277344-1.144531-3.164062-.1875-6.710937 2.398437-8.867187l48-40c2.1875-1.910157 5.238282-2.488281 7.96875-1.507813 2.734375.980469 4.722656 3.363282 5.195313 6.230469.46875 2.863281-.648438 5.761719-2.921875 7.566406l-48 40c-1.4375 1.199219-3.25 1.855469-5.121094 1.855469zm0 0" fill="#fd9226"/><path d="m448 192h-16v-16h-16v16h-16v16h16v16h16v-16h16zm0 0" fill="#fbb540"/><path d="m80 256h48v16h-48zm0 0" fill="#fd9226"/><g fill="#fbd699"><path d="m392 264h16v16h-16zm0 0"/><path d="m368 288h16v16h-16zm0 0"/><path d="m416 288h16v16h-16zm0 0"/><path d="m392 312h16v16h-16zm0 0"/><path d="m48 168h16v16h-16zm0 0"/><path d="m32 184h16v16h-16zm0 0"/><path d="m64 184h16v16h-16zm0 0"/><path d="m48 200h16v16h-16zm0 0"/></g><path d="m232 256c-6.792969.003906-13.496094-1.570312-19.574219-4.601562-2.582031-1.261719-4.285156-3.8125-4.464843-6.679688-.179688-2.867188 1.191406-5.613281 3.589843-7.1875 2.402344-1.578125 5.464844-1.746094 8.023438-.441406 7.828125 3.894531 17.023437 3.894531 24.851562 0 2.558594-1.304688 5.621094-1.136719 8.023438.441406 2.398437 1.574219 3.769531 4.320312 3.589843 7.1875-.179687 2.867188-1.882812 5.417969-4.464843 6.679688-6.078125 3.03125-12.78125 4.605468-19.574219 4.601562zm0 0" fill="#eeb58e"/><path d="m224 200c0 13.253906-10.746094 24-24 24s-24-10.746094-24-24 10.746094-24 24-24 24 10.746094 24 24zm0 0" fill="#ebebeb"/><path d="m288 200c0 13.253906-10.746094 24-24 24s-24-10.746094-24-24 10.746094-24 24-24 24 10.746094 24 24zm0 0" fill="#ebebeb"/><path d="m400 56c4.417969 0 8 3.582031 8 8h16c-.042969-10.132812-6.445312-19.148438-16-22.527344v-9.472656h-16v9.472656c-11.011719 3.878906-17.621094 15.132813-15.644531 26.640625 1.980469 11.507813 11.96875 19.910157 23.644531 19.886719 4.417969 0 8 3.582031 8 8s-3.582031 8-8 8-8-3.582031-8-8h-16c.042969 10.132812 6.445312 19.148438 16 22.527344v9.472656h16v-9.472656c11.011719-3.878906 17.621094-15.132813 15.644531-26.640625-1.980469-11.507813-11.96875-19.910157-23.644531-19.886719-4.417969 0-8-3.582031-8-8s3.582031-8 8-8zm0 0"/><path d="m440 0h-80c-22.082031.0273438-39.972656 17.917969-40 40v80c.019531 19 13.386719 35.375 32 39.199219v24.800781c0 3.078125 1.761719 5.878906 4.535156 7.214844 2.773438 1.332031 6.0625.957031 8.464844-.96875l37.808594-30.246094h37.191406c22.082031-.027344 39.972656-17.917969 40-40v-80c-.027344-22.082031-17.917969-39.9726562-40-40zm24 120c0 13.253906-10.746094 24-24 24h-40c-1.816406 0-3.582031.617188-5 1.753906l-27 21.597656v-15.351562c0-4.417969-3.582031-8-8-8-13.253906 0-24-10.746094-24-24v-80c0-13.253906 10.746094-24 24-24h80c13.253906 0 24 10.746094 24 24zm0 0"/><path d="m40 120h40.640625l42.710937 30.511719c2.4375 1.742187 5.644532 1.972656 8.308594.601562 2.664063-1.371093 4.339844-4.117187 4.339844-7.113281v-27.457031c14.554688-6.324219 23.980469-20.671875 24-36.542969v-40c-.027344-22.082031-17.917969-39.9726562-40-40h-80c-22.082031.0273438-39.9726562 17.917969-40 40v40c.0273438 22.082031 17.917969 39.972656 40 40zm-24-80c0-13.253906 10.746094-24 24-24h80c13.253906 0 24 10.746094 24 24v40c-.027344 10.910156-7.429688 20.417969-18 23.121094-3.53125.910156-6 4.09375-6 7.742187v17.601563l-32.152344-22.96875c-1.355468-.972656-2.980468-1.492188-4.648437-1.496094h-43.199219c-13.253906 0-24-10.746094-24-24zm0 0"/><path d="m56 48c.535156-.015625 1.070312-.070312 1.601562-.160156.5-.085938.984376-.25 1.4375-.480469.511719-.175781.996094-.417969 1.441407-.71875l1.199219-.960937.960937-1.199219c.300781-.445313.542969-.929688.71875-1.441407.230469-.453124.394531-.9375.480469-1.4375.089844-.53125.144531-1.066406.160156-1.601562-.03125-2.117188-.859375-4.144531-2.320312-5.679688-2.316407-2.238281-5.738282-2.894531-8.71875-1.679687-2.011719.726563-3.59375 2.308594-4.320313 4.320313-.410156.960937-.628906 1.992187-.640625 3.039062-.023438 2.128906.8125 4.175781 2.320312 5.679688 1.503907 1.507812 3.550782 2.34375 5.679688 2.320312zm0 0"/><path d="m109.679688 74.320312c-.378907-.34375-.78125-.664062-1.199219-.960937-.445313-.300781-.929688-.542969-1.441407-.71875-.453124-.230469-.9375-.394531-1.4375-.480469-2.636718-.523437-5.359374.285156-7.28125 2.160156-.722656.765626-1.292968 1.660157-1.679687 2.640626-.851563 1.9375-.851563 4.140624 0 6.078124.40625.96875.972656 1.863282 1.679687 2.640626 2.289063 2.308593 5.746094 3 8.746094 1.753906 3.003906-1.246094 4.953125-4.183594 4.933594-7.433594-.011719-1.046875-.230469-2.078125-.640625-3.039062-.40625-.96875-.972656-1.863282-1.679687-2.640626zm0 0"/><path d="m49.855469 85.121094c2.828125 3.390625 7.871093 3.847656 11.265625 1.023437l48-40c2.273437-1.804687 3.390625-4.703125 2.921875-7.566406-.472657-2.867187-2.460938-5.25-5.195313-6.230469-2.730468-.980468-5.78125-.402344-7.96875 1.507813l-48 40c-3.390625 2.828125-3.847656 7.871093-1.023437 11.265625zm0 0"/><path d="m416 176v16h-16v16h16v16h16v-16h16v-16h-16v-16zm0 0"/><path d="m80 256h48v16h-48zm0 0"/><path d="m392 264h16v16h-16zm0 0"/><path d="m368 288h16v16h-16zm0 0"/><path d="m416 288h16v16h-16zm0 0"/><path d="m392 312h16v16h-16zm0 0"/><path d="m48 168h16v16h-16zm0 0"/><path d="m32 184h16v16h-16zm0 0"/><path d="m64 184h16v16h-16zm0 0"/><path d="m48 200h16v16h-16zm0 0"/><path d="m272 384h16v16h-16zm0 0"/><path d="m232 256c6.792969.003906 13.496094-1.570312 19.574219-4.601562 2.582031-1.261719 4.285156-3.8125 4.464843-6.679688.179688-2.867188-1.191406-5.613281-3.589843-7.1875-2.402344-1.578125-5.464844-1.746094-8.023438-.441406-7.828125 3.894531-17.023437 3.894531-24.851562 0-2.558594-1.304688-5.621094-1.136719-8.023438.441406-2.398437 1.574219-3.769531 4.320312-3.589843 7.1875.179687 2.867188 1.882812 5.417969 4.464843 6.679688 6.078125 3.03125 12.78125 4.605468 19.574219 4.601562zm0 0"/><path d="m296 224c9.9375.035156 18.859375-6.078125 22.417969-15.355469 3.554687-9.28125 1-19.792969-6.417969-26.40625v-22.238281c-.046875-44.164062-35.835938-79.953125-80-80-44.152344.070312-79.929688 35.847656-80 80v22.238281c-7.417969 6.613281-9.972656 17.125-6.417969 26.40625 3.558594 9.277344 12.480469 15.390625 22.417969 15.355469-.085938 22.828125 12.148438 43.929688 32 55.199219v26.402343l-60.59375 13.984376c-25.472656 5.78125-43.515625 28.476562-43.40625 54.597656v65.816406c0 4.417969 3.582031 8 8 8h256c4.417969 0 8-3.582031 8-8v-66.519531c.035156-25.703125-17.460938-48.117188-42.398438-54.328125l-59.65625-14.914063c-.636718-.15625-1.289062-.238281-1.945312-.238281v-24.800781c19.851562-11.269531 32.085938-32.371094 32-55.199219zm-56 134.113281-4.945312 9.886719h-6.109376l-4.945312-9.886719v-3.867187l8-2 8 2zm-35.273438-37.144531 13.671876 18.230469-13.535157 3.386719-7.917969-19.777344zm27.273438 9.695312-8-10.664062h16zm-16-26.664062v-18.097656c10.484375 2.796875 21.515625 2.796875 32 0v18.097656zm17.136719-112h-2.273438c-2.769531-10.589844-10.769531-19.023438-21.199219-22.34375l5.769532-5.777344c6.421875 7.148438 13.753906 13.417969 21.8125 18.648438-1.871094 2.914062-3.261719 6.113281-4.109375 9.472656zm-33.136719-8c8.835938 0 16 7.164062 16 16s-7.164062 16-16 16-16-7.164062-16-16 7.164062-16 16-16zm64 0c8.835938 0 16 7.164062 16 16s-7.164062 16-16 16-16-7.164062-16-16 7.164062-16 16-16zm32 24v-16c4.417969 0 8 3.582031 8 8s-3.582031 8-8 8zm-128-48c.066406-35.320312 28.679688-63.933594 64-64 35.328125.039062 63.960938 28.671875 64 64v16h-8c-.839844.03125-1.667969.199219-2.457031.496094-9.609375-9.042969-23.863281-11.078125-35.621094-5.089844-10.691406-6.160156-20.046875-14.390625-27.523437-24.207031-1.398438-1.828125-3.519532-2.964844-5.816407-3.117188-2.296875-.152343-4.550781.691407-6.183593 2.316407l-25.824219 25.824218c-2.179688 1.203125-4.214844 2.65625-6.0625 4.328125-.800781-.320312-1.648438-.507812-2.511719-.550781h-8zm-8 40c0-4.417969 3.582031-8 8-8v16c-4.417969 0-8-3.582031-8-8zm24.257812 27.6875c4.777344 2.789062 10.207032 4.277344 15.742188 4.3125 14.546875-.054688 27.226562-9.914062 30.863281-24h2.273438c3.636719 14.085938 16.316406 23.945312 30.863281 24 5.535156-.035156 10.964844-1.523438 15.742188-4.3125-1.882813 24.972656-22.699219 44.273438-47.742188 44.273438s-45.859375-19.300782-47.742188-44.273438zm-72.257812 146.496094c-.070312-18.652344 12.816406-34.855469 31.007812-38.984375l38.128907-8.800781 11.4375 28.570312c1.214843 3.035156 4.15625 5.027344 7.425781 5.03125.65625 0 1.308594-.082031 1.945312-.238281l6.054688-1.515625v1.753906c0 1.242188.285156 2.464844.839844 3.574219l6.214844 12.425781-6.214844 12.425781c-.554688 1.109375-.839844 2.332031-.839844 3.574219v40h-48v-48h-16v48h-32zm112 57.816406v-38.113281l4.945312-9.886719h6.109376l4.945312 9.886719v38.113281zm128-58.519531v58.519531h-32v-48h-16v48h-48v-40c.011719-1.238281-.261719-2.460938-.800781-3.574219l-6.253907-12.425781 6.214844-12.425781c.554688-1.109375.839844-2.332031.839844-3.574219v-1.753906l6.054688 1.515625c.636718.15625 1.289062.238281 1.945312.238281 3.273438.003906 6.214844-1.988281 7.433594-5.023438l11.949218-29.886718 38.3125 9.597656c17.816407 4.433594 30.316407 20.433594 30.304688 38.792969zm-84.289062-52.304688-8.511719 21.367188-13.597657-3.34375 14.398438-19.199219h3.015625zm0 0"/></svg>